<svg width="38" height="38" viewBox="0 0 38 38" fill="none" xmlns="http://www.w3.org/2000/svg">
<rect width="38" height="38" rx="12" fill="#CBCBCB"/>
<path d="M23.1605 20.585C22.1693 20.585 21.2818 21.0373 20.693 21.7461L16.8627 19.5714C16.9819 19.2362 17.0473 18.8758 17.0473 18.5002C17.0473 18.1247 16.9819 17.7643 16.8627 17.4291L20.6927 15.2539C21.2815 15.963 22.169 16.4153 23.1604 16.4153C24.9286 16.4153 26.3673 14.9762 26.3673 13.2072C26.3674 11.4387 24.9288 10 23.1605 10C21.392 10 19.9533 11.4387 19.9533 13.2071C19.9533 13.5827 20.0187 13.9432 20.1379 14.2784L16.3077 16.4537C15.7189 15.745 14.8316 15.293 13.8405 15.293C12.0718 15.293 10.6328 16.7317 10.6328 18.5001C10.6328 20.2686 12.0718 21.7073 13.8405 21.7073C14.8316 21.7073 15.7188 21.2552 16.3076 20.5466L20.1379 22.7213C20.0187 23.0566 19.9532 23.4172 19.9532 23.7928C19.9532 25.5612 21.392 26.9999 23.1605 26.9999C24.9287 26.9999 26.3673 25.5612 26.3673 23.7928C26.3674 22.0241 24.9288 20.585 23.1605 20.585ZM23.1605 11.1223C24.31 11.1223 25.2451 12.0575 25.2451 13.2071C25.2451 14.3573 24.31 15.293 23.1605 15.293C22.0109 15.293 21.0756 14.3573 21.0756 13.2071C21.0756 12.0575 22.0109 11.1223 23.1605 11.1223ZM13.8406 20.585C12.6907 20.585 11.7552 19.6497 11.7552 18.5002C11.7552 17.3506 12.6907 16.4153 13.8406 16.4153C14.99 16.4153 15.9251 17.3506 15.9251 18.5002C15.9251 19.6497 14.99 20.585 13.8406 20.585ZM23.1605 25.8777C22.0109 25.8777 21.0756 24.9424 21.0756 23.7929C21.0756 22.6429 22.0109 21.7073 23.1605 21.7073C24.31 21.7073 25.2451 22.6429 25.2451 23.7929C25.2451 24.9424 24.31 25.8777 23.1605 25.8777Z" fill="black"/>
</svg>
